<svg width="121" height="32" viewBox="0 0 121 32" fill="none" xmlns="http://www.w3.org/2000/svg">
<g id="BCID_H_rgb_rev">
<g id="g12">
<path id="path14" d="M6.69801 26.7745C14.3022 26.7745 24.8211 31.0906 32.4536 31.0906C37.9001 31.0906 43.2148 29.6253 46.2398 27.4678C46.4511 26.2008 46.5628 24.8999 46.5628 23.5724C46.5628 10.6893 36.2022 0.245489 23.422 0.245489C10.6416 0.245489 0.28125 10.6893 0.28125 23.5724C0.28125 24.8845 0.390425 26.1706 0.597021 27.4239C1.43101 27.2682 4.26703 26.7745 6.69801 26.7745Z" fill="white"/>
<path id="path16" d="M112.246 31.3456H58.7188V32H112.246V31.3456Z" fill="#EFA20F"/>
<path id="path18" d="M61.4278 13.3697C61.4278 13.9026 61.4603 14.6573 61.7699 14.9831C62.0798 15.3235 62.5689 15.3974 63.0578 15.3974C64.5081 15.3974 65.6164 14.8056 65.6164 13.3254C65.6164 12.1561 64.9645 10.7943 62.3731 10.7943C61.4931 10.7943 61.4278 10.8831 61.4278 11.1791V13.3697ZM61.4278 9.93569C61.4278 10.3505 61.444 10.3798 62.2753 10.3505C63.9376 10.291 64.8342 9.84686 64.8342 8.45567C64.8342 7.00515 63.6441 6.45745 62.4059 6.45745C62.047 6.45745 61.8025 6.48711 61.6561 6.54627C61.4931 6.59069 61.4278 6.66494 61.4278 6.9309V9.93569ZM60.0913 7.96731C60.0913 6.87208 60.0147 6.58194 59.2814 6.52244L58.7712 6.48712C58.688 6.42058 58.7115 6.12393 58.7875 6.11707C59.6672 6.03802 60.7759 5.99875 62.2916 5.99875C63.3184 5.99875 64.2963 6.07265 65.03 6.41304C65.7307 6.72392 66.2686 7.31586 66.2686 8.2631C66.2686 9.329 65.5837 9.8767 64.6059 10.291C64.6059 10.439 64.7366 10.4836 64.9157 10.5129C65.7957 10.6612 67.0995 11.4011 67.0995 12.9849C67.0995 14.7019 65.698 15.8564 62.7642 15.8564C62.2916 15.8564 61.4931 15.8119 60.8084 15.8119C60.0913 15.8119 59.5372 15.8419 58.9342 15.8564C58.8364 15.8119 58.8037 15.5752 58.9015 15.4862L59.195 15.4418C60.0586 15.3086 60.0913 15.1458 60.0913 13.5918V7.96731Z" fill="white"/>
<path id="path20" d="M78.4275 9.42403C78.4275 8.08394 78.3996 7.86907 77.5783 7.80597L77.2301 7.78059C77.1464 7.73001 77.1747 7.50246 77.258 7.46439C77.9541 7.4896 78.4275 7.50246 79.012 7.50246C79.5691 7.50246 80.0423 7.4896 80.7383 7.46439C80.8221 7.50246 80.8497 7.73001 80.7661 7.78059L80.4183 7.80597C79.5967 7.86907 79.5691 8.08394 79.5691 9.42403V13.9251C79.5691 15.2652 79.5967 15.4422 80.4183 15.5308L80.7661 15.5686C80.8497 15.6191 80.8221 15.8465 80.7383 15.8848C80.0423 15.8594 79.5691 15.8465 79.012 15.8465C78.4275 15.8465 77.9541 15.8594 77.258 15.8848C77.1747 15.8465 77.1464 15.6444 77.2301 15.5686L77.5783 15.5308C78.3996 15.4422 78.4275 15.2652 78.4275 13.9251V9.42403Z" fill="white"/>
<path id="path22" d="M86.152 13.9505C86.152 15.2777 86.1778 15.4674 86.9346 15.5308L87.3519 15.5686C87.43 15.6191 87.4041 15.8465 87.326 15.8848C86.5825 15.8594 86.139 15.8465 85.617 15.8465C85.0954 15.8465 84.6388 15.8594 83.8043 15.8848C83.7259 15.8465 83.6997 15.632 83.8043 15.5686L84.2738 15.5308C85.0173 15.4674 85.0821 15.2777 85.0821 13.9505V8.29879C85.0821 7.90697 85.0821 7.89445 84.6911 7.89445H83.9737C83.4129 7.89445 82.6955 7.91966 82.3693 8.21049C82.0564 8.48862 81.9258 8.76676 81.7826 9.08279C81.6779 9.15858 81.4956 9.09531 81.4434 8.99413C81.6517 8.42552 81.8477 7.61632 81.9387 7.11063C81.9784 7.08543 82.1478 7.07257 82.1866 7.11063C82.265 7.51498 82.6955 7.50246 83.2957 7.50246H88.5779C89.2823 7.50246 89.3995 7.47725 89.5953 7.14853C89.6608 7.12315 89.8042 7.13584 89.8302 7.18625C89.6866 7.7048 89.5953 8.72886 89.6344 9.108C89.5823 9.20917 89.3607 9.20917 89.2955 9.13338C89.2564 8.81717 89.1651 8.34955 88.9693 8.21049C88.6694 7.99528 88.1739 7.89445 87.4563 7.89445H86.5303C86.139 7.89445 86.152 7.90697 86.152 8.32418V13.9505Z" fill="white"/>
<path id="path24" d="M91.7418 9.42403C91.7418 8.08394 91.7139 7.86907 90.8926 7.80597L90.5444 7.78059C90.4611 7.73001 90.489 7.50246 90.5723 7.46439C91.2684 7.4896 91.7418 7.50246 92.3265 7.50246C92.8834 7.50246 93.3565 7.4896 94.0526 7.46439C94.1363 7.50246 94.1642 7.73001 94.0808 7.78059L93.7322 7.80597C92.911 7.86907 92.8834 8.08394 92.8834 9.42403V13.9251C92.8834 15.2652 92.911 15.4422 93.7322 15.5308L94.0808 15.5686C94.1642 15.6191 94.1363 15.8465 94.0526 15.8848C93.3565 15.8594 92.8834 15.8465 92.3265 15.8465C91.7418 15.8465 91.2684 15.8594 90.5723 15.8848C90.489 15.8465 90.4611 15.6444 90.5444 15.5686L90.8926 15.5308C91.7139 15.4422 91.7418 15.2652 91.7418 13.9251V9.42403Z" fill="white"/>
<path id="path26" d="M97.9799 16.0139C96.7366 16.0139 95.9523 15.6852 95.6711 15.5463C95.4935 15.2682 95.3011 14.3705 95.2715 13.7763C95.3455 13.6877 95.5675 13.6625 95.6267 13.7382C95.8488 14.3832 96.4556 15.6219 98.1723 15.6219C99.4155 15.6219 100.022 14.9266 100.022 14.168C100.022 13.6119 99.8889 12.9925 98.8085 12.398L97.4028 11.6142C96.663 11.197 95.8044 10.4762 95.8044 9.43966C95.8044 8.23864 96.8994 7.26499 98.8235 7.26499C99.282 7.26499 99.8149 7.34095 100.2 7.42944C100.392 7.48002 100.599 7.50523 100.717 7.50523C100.851 7.80892 100.984 8.51677 100.984 9.04766C100.925 9.12363 100.688 9.16136 100.614 9.08573C100.422 8.47888 100.022 7.65716 98.6015 7.65716C97.151 7.65716 96.8404 8.47888 96.8404 9.06036C96.8404 9.79359 97.5506 10.325 98.0982 10.6155L99.2819 11.2475C100.214 11.7405 101.132 12.4738 101.132 13.6751C101.132 15.0658 99.9039 16.0139 97.9799 16.0139Z" fill="white"/>
<path id="path28" d="M105.429 11.763C104.781 11.763 104.754 11.7882 104.754 12.1675V13.9505C104.754 15.2777 104.821 15.4549 105.577 15.5308L105.969 15.5686C106.049 15.6191 106.023 15.8465 105.941 15.8848C105.213 15.8594 104.754 15.8465 104.227 15.8465C103.647 15.8465 103.188 15.8719 102.662 15.8848C102.581 15.8465 102.554 15.6444 102.635 15.5686L102.864 15.5308C103.621 15.4043 103.647 15.2777 103.647 13.9505V9.39882C103.647 8.07125 103.553 7.85655 102.851 7.80597L102.5 7.78059C102.419 7.73001 102.446 7.50246 102.527 7.46439C103.188 7.47725 103.647 7.50246 104.227 7.50246C104.754 7.50246 105.213 7.4896 105.793 7.46439C105.874 7.50246 105.901 7.73001 105.82 7.78059L105.563 7.80597C104.781 7.88176 104.754 8.07125 104.754 9.39882V10.8528C104.754 11.2444 104.781 11.2573 105.429 11.2573H109.289C109.936 11.2573 109.963 11.2444 109.963 10.8528V9.39882C109.963 8.07125 109.936 7.88176 109.14 7.80597L108.884 7.78059C108.803 7.73001 108.83 7.50246 108.911 7.46439C109.532 7.4896 109.991 7.50246 110.544 7.50246C111.07 7.50246 111.529 7.4896 112.136 7.46439C112.217 7.50246 112.244 7.73001 112.163 7.78059L111.88 7.80597C111.097 7.88176 111.07 8.07125 111.07 9.39882V13.9505C111.07 15.2777 111.097 15.4422 111.88 15.5308L112.204 15.5686C112.285 15.6191 112.258 15.8465 112.177 15.8848C111.529 15.8594 111.07 15.8465 110.544 15.8465C109.991 15.8465 109.505 15.8594 108.911 15.8848C108.83 15.8465 108.803 15.6444 108.884 15.5686L109.14 15.5308C109.963 15.4043 109.963 15.2777 109.963 13.9505V12.1675C109.963 11.7882 109.936 11.763 109.289 11.763H105.429Z" fill="white"/>
<path id="path30" d="M52.3661 18.6627C53.4754 17.7928 54.8884 17.3654 56.4689 17.3654C57.2893 17.3654 58.4442 17.5331 59.1587 17.7319C59.341 17.7775 59.4473 17.8082 59.5841 17.7928C59.5992 18.1439 59.6753 19.1052 59.7967 20.0365C59.7207 20.1434 59.4929 20.1588 59.3866 20.0674C59.1587 19.0293 58.4748 17.8385 56.2714 17.8385C53.9464 17.8385 51.9707 19.3192 51.9707 22.4789C51.9707 25.6843 53.992 27.4553 56.484 27.4553C58.4442 27.4553 59.3104 26.1728 59.66 25.2721C59.7665 25.1961 59.9946 25.2264 60.055 25.3335C59.9488 26.127 59.5537 27.1345 59.3257 27.4246C59.1434 27.4553 58.961 27.5161 58.7939 27.577C58.4595 27.6995 57.3654 27.9282 56.3929 27.9282C55.0252 27.9282 53.7184 27.6537 52.6092 26.9055C51.3934 26.0658 50.4512 24.6772 50.4512 22.7081C50.4512 21.0134 51.2112 19.5634 52.3661 18.6627Z" fill="white"/>
<path id="path32" d="M68.6164 23.8658C68.6164 21.7796 67.6553 19.5291 65.1401 19.5291C63.7704 19.5291 61.9928 20.4268 61.9928 23.1958C61.9928 25.0668 62.9408 27.4944 65.5349 27.4944C67.1154 27.4944 68.6164 26.3565 68.6164 23.8658ZM60.6758 23.6002C60.6758 21.0716 62.6511 19.1373 65.364 19.1373C68.4058 19.1373 69.9334 21.2485 69.9334 23.4738C69.9334 26.0278 67.9055 27.8862 65.364 27.8862C62.4407 27.8862 60.6758 25.8758 60.6758 23.6002Z" fill="white"/>
<path id="path34" d="M84.792 22.513C84.792 21.7292 84.7655 20.2751 84.5392 19.8961C84.4462 19.7442 84.207 19.6555 83.8748 19.6303L83.5426 19.6049C83.4628 19.5166 83.489 19.3523 83.5688 19.3014C84.0741 19.3266 84.5661 19.3395 85.0844 19.3395C85.6429 19.3395 86.0021 19.3266 86.4805 19.3019C86.5868 19.365 86.5735 19.5291 86.507 19.6049L86.1877 19.6303C85.8555 19.6555 85.6027 19.7694 85.5233 19.9338C85.3372 20.3508 85.3372 21.805 85.3372 22.513V23.9416C85.3372 25.0418 85.1509 26.2049 84.4067 26.9631C83.8348 27.5575 82.8511 27.8862 81.8673 27.8862C80.9499 27.8862 80.0327 27.7218 79.3812 27.1911C78.6764 26.6348 78.3442 25.7119 78.3442 24.2074V21.2233C78.3442 19.9086 78.3177 19.6936 77.5468 19.6303L77.2142 19.6049C77.1346 19.5543 77.1608 19.3396 77.2406 19.3014C77.9057 19.3266 78.3575 19.3395 78.8894 19.3395C79.4343 19.3395 79.8732 19.3266 80.5243 19.3019C80.6041 19.3396 80.631 19.5543 80.5514 19.6049L80.2321 19.6303C79.4608 19.6936 79.4343 19.9086 79.4343 21.2233V23.9544C79.4343 25.9899 80.0991 27.3301 82.133 27.3301C84.0607 27.3301 84.792 25.8885 84.792 23.9673V22.513Z" fill="white"/>
<path id="path36" d="M101.45 25.5943C101.45 26.054 101.48 26.7051 101.759 26.9862C102.038 27.2799 102.479 27.3437 102.92 27.3437C104.228 27.3437 105.227 26.8329 105.227 25.5559C105.227 24.5471 104.639 23.3727 102.303 23.3727C101.509 23.3727 101.45 23.4488 101.45 23.7046V25.5943ZM101.45 22.6315C101.45 22.9894 101.465 23.0148 102.214 22.9894C103.713 22.9383 104.521 22.5552 104.521 21.3547C104.521 20.1033 103.449 19.6307 102.332 19.6307C102.009 19.6307 101.788 19.6562 101.656 19.7075C101.509 19.7457 101.45 19.8095 101.45 20.0393V22.6315ZM100.245 20.9334C100.245 19.9884 100.186 19.7457 99.5255 19.6948L99.0549 19.6487C99.0015 19.6 98.9729 19.3441 99.0696 19.3369C99.8633 19.2771 100.862 19.2351 102.229 19.2351C103.155 19.2351 104.036 19.2989 104.698 19.5923C105.33 19.8608 105.814 20.3715 105.814 21.1889C105.814 22.108 105.197 22.5808 104.316 22.9383C104.316 23.0661 104.433 23.1043 104.595 23.1298C105.389 23.2574 106.564 23.8962 106.564 25.2623C106.564 26.7434 105.3 27.7395 102.655 27.7395C102.229 27.7395 101.509 27.7013 100.892 27.7013C100.245 27.7013 99.7457 27.7266 99.2021 27.7395C99.1138 27.7013 99.0842 27.497 99.1726 27.4205L99.437 27.3821C100.216 27.2672 100.245 27.1266 100.245 25.786V20.9334Z" fill="white"/>
<path id="path38" d="M71.2247 11.4142C70.9719 11.4142 70.4666 11.509 70.4666 11.1707V8.74566C70.4666 7.7974 70.4965 7.66176 71.6262 7.66176C72.9488 7.66176 73.7665 8.33892 73.7665 9.58539C73.7665 10.1273 73.5731 10.6285 73.0826 10.9671C72.5179 11.3602 71.9082 11.4142 71.2247 11.4142ZM76.2989 15.5687L75.9507 15.5384C75.8802 15.5308 75.8176 15.5219 75.7583 15.5121C75.249 15.4211 75.0448 14.9639 74.805 14.5397L73.6013 12.4264C73.3933 12.074 73.1704 11.6001 72.6946 11.5323C73.9283 11.3832 75.0433 10.6655 75.0433 9.43277C75.0433 8.00986 73.6459 7.37333 72.2338 7.37333C71.3867 7.37333 70.6145 7.39648 69.7523 7.39648C69.2768 7.39648 68.711 7.37333 68.2356 7.37333C67.9714 7.37333 67.9682 7.42769 67.9682 7.57654C67.9682 7.79654 68.0602 7.73498 68.3399 7.75075C69.3444 7.80768 69.3057 7.99665 69.3057 8.86347V14.4044C69.3057 15.1975 69.374 15.4341 68.5479 15.5089C68.5479 15.5089 68.4213 15.5219 68.3496 15.5296L67.9997 15.5658C67.916 15.6414 67.9442 15.8438 68.0275 15.8817C68.2136 15.8748 68.5437 15.8618 68.5437 15.8618C69.0007 15.8482 69.458 15.8131 69.9151 15.8131C70.3749 15.8131 70.8148 15.8486 71.2669 15.862V15.8625C71.4275 15.8674 71.5969 15.8731 71.7827 15.88C71.8664 15.8419 71.8943 15.6397 71.8106 15.5639L71.4583 15.5303C71.3867 15.5226 71.263 15.5115 71.263 15.5115C70.4291 15.4545 70.4802 15.2174 70.4802 14.4044V12.318C70.4802 12.1961 70.465 11.8712 70.5543 11.7762C70.6288 11.6946 70.7624 11.7083 70.8813 11.7083C72.0111 11.7083 71.996 11.8168 72.5312 12.7651L73.9878 15.4067C74.1067 15.6101 74.1957 15.8673 74.4933 15.8673H75.7586C75.918 15.8724 76.0859 15.8777 76.271 15.8848C76.3543 15.8467 76.3822 15.6444 76.2989 15.5687Z" fill="white"/>
<path id="path40" d="M71.4986 21.2664C71.4986 19.939 71.471 19.7363 70.6021 19.6732L70.2569 19.648C70.1743 19.5973 70.2018 19.3701 70.2845 19.3318C71.0573 19.3572 71.5261 19.3697 72.078 19.3697C72.6162 19.3697 73.085 19.3572 73.7751 19.3323C73.8578 19.3701 73.8854 19.5973 73.8027 19.648L73.4715 19.6732C72.6577 19.7363 72.6298 19.939 72.6298 21.2664V25.6664C72.6298 26.4629 72.6713 26.7916 72.9195 27.0317C73.0714 27.1704 73.3335 27.3225 74.4232 27.3225C75.5961 27.3225 75.8858 27.2717 76.1068 27.1582C76.3825 27.0061 76.7413 26.5513 77.017 25.9062C77.1002 25.8435 77.362 25.8936 77.362 25.9822C77.362 26.1215 76.9755 27.4111 76.7825 27.7522C76.0792 27.727 74.7682 27.7141 73.3471 27.7141H72.078C71.4986 27.7141 71.0573 27.727 70.2845 27.7522C70.2018 27.7141 70.1743 27.5119 70.2569 27.4362L70.671 27.3985C71.471 27.3225 71.4986 27.1453 71.4986 25.8181V21.2664Z" fill="white"/>
<path id="path42" d="M108.456 21.2915C108.456 19.9515 108.429 19.7363 107.63 19.6732L107.291 19.648C107.21 19.5973 107.237 19.3701 107.319 19.3318C107.996 19.3572 108.456 19.3697 109.025 19.3697C109.567 19.3697 110.027 19.3572 110.705 19.3323C110.786 19.3701 110.813 19.5973 110.732 19.648L110.393 19.6732C109.594 19.7363 109.567 19.9515 109.567 21.2915V25.7927C109.567 27.133 109.594 27.3098 110.393 27.3985L110.732 27.4362C110.813 27.4867 110.786 27.7141 110.705 27.7522C110.027 27.727 109.567 27.7141 109.025 27.7141C108.456 27.7141 107.996 27.727 107.319 27.7522C107.237 27.7141 107.21 27.5119 107.291 27.4362L107.63 27.3985C108.429 27.3098 108.456 27.133 108.456 25.7927V21.2915Z" fill="white"/>
<path id="path44" d="M97.6317 27.3954C97.5623 27.3878 97.4323 27.3775 97.4323 27.3775C97.2898 27.3631 97.1615 27.3424 97.0601 27.2309C96.8844 27.0426 96.899 26.5062 96.899 26.2916V20.7516C96.899 20.51 96.8405 19.987 97.0164 19.7989C97.1044 19.7 97.287 19.6833 97.4498 19.6741V19.6734C97.5488 19.6659 97.5512 19.6655 97.638 19.6612L97.9862 19.6362C98.0695 19.5854 98.0416 19.3581 97.9583 19.32C97.7722 19.3265 97.6031 19.3241 97.4422 19.3291V19.3298H95.9624C95.8013 19.3298 95.6549 19.3298 95.5671 19.5042L92.5516 25.8356L89.888 19.7188C89.8001 19.5042 89.7858 19.3298 89.5073 19.3298H87.967C87.8066 19.3248 87.6295 19.3265 87.4434 19.32C87.3601 19.3581 87.3318 19.5854 87.4155 19.6362L87.7637 19.6612C87.8355 19.6671 87.9655 19.676 87.9655 19.676C88.5432 19.7134 88.579 19.8435 88.5265 20.4565L88.0726 26.3987C88.0332 26.9955 88.0007 27.3108 87.3806 27.3689C87.3806 27.3689 87.2497 27.3854 87.1777 27.3931L86.8298 27.4312C86.7461 27.5066 86.774 27.709 86.8577 27.7469C87.0411 27.74 87.3674 27.7304 87.3674 27.7304C87.6817 27.7148 88.0015 27.6867 88.3218 27.6867C88.6672 27.6867 89.013 27.7196 89.3588 27.7335V27.7342C89.5189 27.7391 89.6883 27.7448 89.8744 27.7513C89.9581 27.7134 89.986 27.5113 89.9023 27.4355L89.5544 27.3976C89.4628 27.3903 89.3602 27.3801 89.3602 27.3801C88.4654 27.3183 88.4853 26.6817 88.5411 25.9028L88.9657 20.3763H89.0685L91.9519 27.1771C91.9809 27.2709 92.0248 27.4319 92.1712 27.4319C92.3032 27.4319 92.3469 27.2846 92.3908 27.1903L95.6402 20.2148H95.7428V26.2916C95.7428 26.533 95.7721 27.0294 95.5232 27.217C95.3934 27.3146 94.9703 27.3732 94.9703 27.3732C94.9122 27.3825 94.8511 27.3911 94.7817 27.3985L94.4338 27.4362C94.3501 27.5119 94.378 27.7141 94.4617 27.7522C94.6451 27.7455 94.9703 27.7353 94.9703 27.7353C95.4422 27.722 95.9216 27.6867 96.4013 27.6867C96.7463 27.6867 97.4216 27.7198 97.4216 27.7198C97.5825 27.7247 97.7659 27.7424 97.952 27.7491C98.0357 27.7112 98.0636 27.509 97.9799 27.4334L97.6317 27.3954Z" fill="white"/>
<path id="path46" d="M116.595 24.3002H114.967C114.91 24.3002 114.457 24.354 114.457 24.2199C114.457 24.1796 114.485 24.0992 114.499 24.0593L115.477 21.6195C115.505 21.5524 115.604 21.2172 115.717 21.2172C115.802 21.2172 115.915 21.5658 115.944 21.6195L116.907 23.8981C116.907 23.9252 117.006 24.1395 117.006 24.1932C117.006 24.3408 116.68 24.3002 116.595 24.3002ZM120.251 27.4297L120.205 27.3918C120.135 27.3845 120.073 27.3759 120.015 27.3662C119.473 27.2441 119.261 26.5856 119.061 26.1165L116.27 19.4573C116.242 19.3774 116.187 19.2051 116.076 19.2051C115.924 19.2051 115.883 19.3908 115.841 19.4968L113.175 26.1431C113.078 26.3951 112.829 27.0059 112.65 27.1911C112.512 27.3333 112.333 27.3603 112.142 27.3802C112.142 27.3802 111.991 27.3946 111.919 27.4025L111.591 27.4362C111.508 27.5119 111.536 27.7141 111.619 27.7522C111.805 27.7455 112.135 27.7335 112.135 27.7335C112.5 27.7283 112.865 27.6819 113.23 27.6819C113.537 27.6819 113.844 27.7148 114.151 27.7286C114.151 27.7286 114.481 27.7405 114.667 27.7476C114.75 27.7093 114.778 27.507 114.695 27.4313L114.347 27.3933C114.277 27.3861 114.158 27.3747 114.158 27.3747C113.837 27.3389 113.437 27.2812 113.437 26.9255C113.437 26.6868 113.548 26.4082 113.631 26.1959L114.045 25.2013C114.253 24.7239 114.169 24.6704 114.722 24.6704H116.601C117.265 24.6704 117.168 24.6704 117.458 25.3476L117.9 26.3552C117.969 26.5279 118.094 26.8197 118.094 27.0059C118.094 27.3389 117.733 27.3609 117.395 27.3897C117.395 27.3897 117.283 27.3991 117.186 27.4067L116.851 27.4312C116.768 27.5068 116.796 27.7091 116.88 27.7472C117.065 27.7405 117.395 27.727 117.395 27.727C117.788 27.7126 118.184 27.6819 118.564 27.6819C119.047 27.6819 119.532 27.715 120.015 27.7289V27.7283C120.174 27.7333 120.04 27.739 120.224 27.7457C120.307 27.7076 120.335 27.5054 120.251 27.4297Z" fill="white"/>
<path id="path48" d="M38.3887 18.1753L39.3038 18.5579L41.3329 17.1312L38.3887 18.1753Z" fill="#EFA20F"/>
<path id="path50" d="M4.29241 16.5819L1.8873 15.729L2.00791 15.4318L4.71647 16.3422L4.72817 16.3357L5.08557 16.1313L5.22829 16.0413L2.27455 14.7747L2.39941 14.4633L8.99176 17.1512L9.20916 17.0602L2.67112 13.8484L2.81691 13.5466L9.74534 16.7971L9.84111 16.7481L3.12324 12.9072L3.26118 12.6186L12.9622 17.9397C13.0417 17.7917 13.2081 17.5221 13.2934 17.3769C9.60517 13.8813 6.046 11.2567 6.046 11.2567C6.046 11.2567 9.70621 13.7277 14.2236 16.0248C14.3728 15.8372 14.4953 15.6865 14.6547 15.5083L6.37856 8.16361L6.60072 7.93366L13.2805 13.6723L7.09216 7.42523L7.32368 7.18345L14.2716 13.9522L7.80406 6.71617L8.0514 6.49119L14.029 12.9437L8.57312 6.01397L8.80804 5.7986L15.8015 14.3778C15.9823 14.2205 16.1326 14.1022 16.3217 13.9561C14.2062 9.34149 11.896 5.58751 11.896 5.58751C11.896 5.58751 14.3549 9.2362 17.6725 13.0572C17.8751 12.9423 18.0806 12.8319 18.2905 12.7283L18.2555 12.7052L13.3542 2.84525L13.6456 2.71596L17.7062 10.5591L14.2901 2.42993L14.5948 2.29344L18.5214 11.1928L15.2135 2.04137L15.5265 1.92631L18.6711 10.1661L16.1875 1.68058L16.4857 1.56981L19.7552 12.0944L19.7489 12.1222L19.757 12.1189C19.9744 12.0455 20.1956 11.9805 20.4179 11.9195C20.169 6.86433 19.4272 2.54002 19.4272 2.54002C19.4272 2.54002 20.3458 6.82626 21.9928 11.6055C22.2221 11.577 22.4529 11.553 22.6858 11.5371L22.6785 11.5261H22.7071L22.6906 11.5021L21.8104 0.509218L22.1285 0.499105L22.9787 9.30496L22.8326 0.477671L23.1653 0.466183L23.4991 10.2002L23.8325 0.466011L24.1659 0.477671L24.0194 9.30496L24.8698 0.499449L25.1877 0.509218L24.3076 11.5021L24.2913 11.5261H24.2959L24.2935 11.5297H24.3079C24.5355 11.5441 24.7613 11.5671 24.9855 11.5942C26.6301 6.81957 27.5471 2.54002 27.5471 2.54002C27.5471 2.54002 26.8075 6.85147 26.5574 11.8973C26.7822 11.9572 27.0042 12.0227 27.2231 12.0951L30.481 1.60719L30.7797 1.71796L28.2956 10.2035L31.4406 1.96369L31.7532 2.07892L28.4453 11.2301L32.3719 2.33065L32.6769 2.46715L29.2605 10.5965L33.3213 2.75334L33.6125 2.88246L28.7287 12.7074L28.737 12.7108C28.9383 12.8094 29.1354 12.9151 29.3304 13.024C32.6335 9.21493 35.0783 5.58751 35.0783 5.58751C35.0783 5.58751 32.7839 9.31559 30.6746 13.9079C30.8631 14.0514 31.0474 14.1996 31.2266 14.3536L38.1377 5.86753L38.3735 6.08308L32.9169 13.0128L38.895 6.56064L39.1419 6.78545L32.6742 14.0214L39.6222 7.25255L39.8539 7.49451L33.6656 13.7416L40.3452 8.00311L40.5674 8.23254L32.3925 15.4946L32.3971 15.4994C32.5398 15.6597 32.6772 15.8252 32.8121 15.9934C37.301 13.7054 40.9283 11.2567 40.9283 11.2567C40.9283 11.2567 37.4037 13.8556 33.7346 17.3263C33.8352 17.4956 33.9975 17.7842 34.0902 17.9585L43.6538 12.7093L43.7921 12.9982L36.1578 17.3628L44.0983 13.6378L44.2437 13.9396L36.8478 17.5727L36.9897 17.6226L44.5154 14.554L44.6404 14.8658L37.6453 17.8651L37.7761 17.9196L42.4374 16.3532L43.1399 15.859L43.3731 16.0383L44.907 15.5231L45.0276 15.8195L43.7006 16.2902L45.618 17.7653L46.2323 18.1105C43.7673 7.72291 34.4977 -6.67572e-05 23.4377 -6.67572e-05C12.1833 -6.67572e-05 2.78302 7.99659 0.519531 18.6604C0.548569 18.6462 0.576738 18.6328 0.605844 18.6184L0.886658 18.4901L1.05901 18.4092L4.29241 16.5819Z" fill="#EFA20F"/>
<path id="path52" d="M0.387846 27.9243C0.387846 27.9243 3.84524 27.2282 6.73134 27.2282C14.3355 27.2282 24.8545 31.5444 32.4869 31.5444C38.0858 31.5444 43.5466 29.9962 46.5228 27.7389C46.7552 26.4034 46.8772 25.0299 46.8772 23.6272C46.8772 21.7276 46.6533 19.8809 46.2331 18.1108L43.0513 16.3221L39.3179 18.9613L36.8064 17.9755C35.9562 18.4086 30.7108 21.9447 30.7108 21.9447L28.6976 20.4756L26.5375 20.0444L23.6574 17.9306L20.3534 20.217C20.3534 20.217 16.6674 22.3746 16.5408 22.3746C16.4137 22.3746 12.0935 18.9222 12.0935 18.9222L10.1031 16.8084C9.76403 17.0241 8.41014 17.6504 8.41014 17.6504L8.34056 17.6689L7.03039 17.2604L5.43937 16.4097L0.606673 18.6187C0.577568 18.6331 0.549398 18.6465 0.520361 18.6607C0.1804 20.2621 0 21.9234 0 23.6272C0 25.0947 0.133756 26.5308 0.387846 27.9243Z" fill="#25346D"/>
</g>
</g>
</svg>
