<svg width="40" height="36" viewBox="0 0 40 36" fill="none" xmlns="http://www.w3.org/2000/svg">
<g id="logo-vertical 1" clip-path="url(#clip0_746_105172)">
<g id="1.0---Login">
<g id="gov_v_pos-(1)">
<path id="Fill-1" fill-rule="evenodd" clip-rule="evenodd" d="M6.17438 25.4036C6.17438 25.7099 6.19258 26.1438 6.365 26.331C6.53753 26.5265 6.8098 26.5692 7.08207 26.5692C7.88967 26.5692 8.50677 26.229 8.50677 25.378C8.50677 24.7058 8.14374 23.9231 6.70084 23.9231C6.21078 23.9231 6.17438 23.9744 6.17438 24.1443V25.4036ZM6.17438 23.4295C6.17438 23.6679 6.18348 23.6849 6.64637 23.6679C7.57202 23.6338 8.0713 23.3786 8.0713 22.5789C8.0713 21.745 7.4087 21.4303 6.71904 21.4303C6.51933 21.4303 6.38319 21.4471 6.30153 21.4812C6.21078 21.5068 6.17438 21.5495 6.17438 21.7024V23.4295ZM5.43024 22.2982C5.43024 21.6686 5.3876 21.5016 4.97919 21.4677L4.6952 21.4471C4.64891 21.4089 4.66199 21.2385 4.7043 21.2346C5.19414 21.1891 5.81147 21.1665 6.65546 21.1665C7.22719 21.1665 7.77173 21.2089 8.18025 21.4047C8.57046 21.5833 8.8698 21.9236 8.8698 22.4683C8.8698 23.0808 8.48869 23.3957 7.94414 23.6338C7.94414 23.7189 8.01682 23.7446 8.11656 23.7614C8.60663 23.8467 9.33268 24.2718 9.33268 25.1823C9.33268 26.1695 8.55226 26.8332 6.91852 26.8332C6.65546 26.8332 6.21078 26.8074 5.82955 26.8074C5.43024 26.8074 5.12169 26.8248 4.78585 26.8332C4.73148 26.8074 4.71329 26.6714 4.76776 26.6201L4.93119 26.5946C5.41205 26.518 5.43024 26.4245 5.43024 25.5312V22.2982Z" fill="white"/>
<path id="Fill-2" fill-rule="evenodd" clip-rule="evenodd" d="M16.0201 23.2528C16.0201 22.5101 16.0048 22.3909 15.5532 22.3559L15.3617 22.3418C15.3158 22.3138 15.3311 22.1878 15.3771 22.1665C15.7599 22.1807 16.0201 22.1878 16.3417 22.1878C16.6479 22.1878 16.9081 22.1807 17.291 22.1665C17.3369 22.1878 17.3522 22.3138 17.3062 22.3418L17.1148 22.3559C16.6632 22.3909 16.6479 22.5101 16.6479 23.2528V25.7473C16.6479 26.4898 16.6632 26.5879 17.1148 26.637L17.3062 26.6579C17.3522 26.686 17.3369 26.8119 17.291 26.8332C16.9081 26.819 16.6479 26.8119 16.3417 26.8119C16.0201 26.8119 15.7599 26.819 15.3771 26.8332C15.3311 26.8119 15.3158 26.7 15.3617 26.6579L15.5532 26.637C16.0048 26.5879 16.0201 26.4898 16.0201 25.7473V23.2528Z" fill="white"/>
<path id="Fill-3" fill-rule="evenodd" clip-rule="evenodd" d="M20.2861 25.8072C20.2861 26.5112 20.3006 26.6117 20.7215 26.6454L20.9538 26.6654C20.9973 26.6923 20.9829 26.8129 20.9394 26.8332C20.5256 26.8196 20.279 26.8129 19.9885 26.8129C19.6982 26.8129 19.4442 26.8196 18.9798 26.8332C18.9362 26.8129 18.9217 26.6991 18.9798 26.6654L19.241 26.6454C19.6547 26.6117 19.691 26.5112 19.691 25.8072V22.8095C19.691 22.6016 19.691 22.5951 19.4732 22.5951H19.074C18.762 22.5951 18.3628 22.6083 18.1814 22.7625C18.0072 22.91 17.9347 23.0578 17.8549 23.2253C17.7967 23.2656 17.6952 23.232 17.666 23.1784C17.7822 22.8767 17.8911 22.4474 17.9418 22.1791C17.9638 22.1658 18.0581 22.1591 18.0798 22.1791C18.1234 22.3936 18.3628 22.3872 18.6968 22.3872H21.636C22.0279 22.3872 22.0933 22.3736 22.2022 22.1993C22.2384 22.1859 22.3182 22.1927 22.3327 22.2193C22.253 22.4944 22.2022 23.0375 22.2239 23.2389C22.1949 23.2925 22.0714 23.2925 22.0353 23.2522C22.0134 23.0843 21.9626 22.8363 21.8538 22.7625C21.6867 22.6484 21.4112 22.5951 21.0119 22.5951H20.4967C20.279 22.5951 20.2861 22.6016 20.2861 22.823V25.8072Z" fill="white"/>
<path id="Fill-4" fill-rule="evenodd" clip-rule="evenodd" d="M23.352 23.2528C23.352 22.5101 23.3368 22.3909 22.8851 22.3559L22.6938 22.3418C22.6478 22.3138 22.6631 22.1878 22.709 22.1665C23.0918 22.1807 23.352 22.1878 23.6737 22.1878C23.9798 22.1878 24.2401 22.1807 24.623 22.1665C24.6689 22.1878 24.6842 22.3138 24.6383 22.3418L24.4467 22.3559C23.9952 22.3909 23.9798 22.5101 23.9798 23.2528V25.7473C23.9798 26.4898 23.9952 26.5879 24.4467 26.637L24.6383 26.6579C24.6842 26.686 24.6689 26.8119 24.623 26.8332C24.2401 26.819 23.9798 26.8119 23.6737 26.8119C23.352 26.8119 23.0918 26.819 22.709 26.8332C22.6631 26.8119 22.6478 26.7 22.6938 26.6579L22.8851 26.637C23.3368 26.5879 23.352 26.4898 23.352 25.7473V23.2528Z" fill="white"/>
<path id="Fill-5" fill-rule="evenodd" clip-rule="evenodd" d="M26.8744 26.8332C26.1673 26.8332 25.7212 26.6577 25.5612 26.5838C25.46 26.4352 25.3508 25.9565 25.334 25.6394C25.376 25.5923 25.5023 25.579 25.5361 25.6193C25.6623 25.9633 26.0073 26.6238 26.9839 26.6238C27.691 26.6238 28.036 26.253 28.036 25.8486C28.036 25.5521 27.9604 25.2215 27.3457 24.9045L26.5462 24.4863C26.1252 24.264 25.637 23.8795 25.637 23.3265C25.637 22.6859 26.26 22.1665 27.3542 22.1665C27.6151 22.1665 27.9182 22.2072 28.137 22.2544C28.2465 22.2814 28.3642 22.2947 28.4316 22.2947C28.5075 22.4567 28.5833 22.8343 28.5833 23.1175C28.5495 23.1581 28.4149 23.1781 28.3728 23.1378C28.2634 22.8141 28.036 22.3758 27.2279 22.3758C26.4031 22.3758 26.2263 22.8141 26.2263 23.1242C26.2263 23.5155 26.6302 23.7987 26.9417 23.9537L27.6151 24.2909C28.1455 24.5538 28.6673 24.9448 28.6673 25.5855C28.6673 26.3273 27.9688 26.8332 26.8744 26.8332Z" fill="white"/>
<path id="Fill-6" fill-rule="evenodd" clip-rule="evenodd" d="M31.0554 24.5488C30.681 24.5488 30.6653 24.563 30.6653 24.7732V25.7612C30.6653 26.4968 30.7044 26.595 31.1413 26.637L31.3675 26.6579C31.4144 26.686 31.3988 26.8119 31.352 26.8332C30.9306 26.819 30.6653 26.8119 30.3611 26.8119C30.0254 26.8119 29.7602 26.826 29.456 26.8332C29.4091 26.8119 29.3935 26.7 29.4404 26.6579L29.5729 26.637C30.01 26.567 30.0254 26.4968 30.0254 25.7612V23.2388C30.0254 22.503 29.9709 22.384 29.5651 22.3559L29.3622 22.3418C29.3155 22.3138 29.331 22.1878 29.3778 22.1665C29.7602 22.1737 30.0254 22.1878 30.3611 22.1878C30.6653 22.1878 30.9306 22.1807 31.2661 22.1665C31.3131 22.1878 31.3285 22.3138 31.2818 22.3418L31.1335 22.3559C30.681 22.398 30.6653 22.503 30.6653 23.2388V24.0444C30.6653 24.2616 30.681 24.2686 31.0554 24.2686H33.287C33.6615 24.2686 33.6772 24.2616 33.6772 24.0444V23.2388C33.6772 22.503 33.6615 22.398 33.2012 22.3559L33.0532 22.3418C33.006 22.3138 33.0217 22.1878 33.0686 22.1665C33.4276 22.1807 33.6929 22.1878 34.0127 22.1878C34.317 22.1878 34.5822 22.1807 34.9334 22.1665C34.9802 22.1878 34.9958 22.3138 34.949 22.3418L34.7851 22.3559C34.3327 22.398 34.317 22.503 34.317 23.2388V25.7612C34.317 26.4968 34.3327 26.5879 34.7851 26.637L34.9724 26.6579C35.0191 26.686 35.0037 26.8119 34.9569 26.8332C34.5822 26.819 34.317 26.8119 34.0127 26.8119C33.6929 26.8119 33.412 26.819 33.0686 26.8332C33.0217 26.8119 33.006 26.7 33.0532 26.6579L33.2012 26.637C33.6772 26.567 33.6772 26.4968 33.6772 25.7612V24.7732C33.6772 24.563 33.6615 24.5488 33.287 24.5488H31.0554Z" fill="white"/>
<path id="Fill-7" fill-rule="evenodd" clip-rule="evenodd" d="M1.12969 28.5703C1.78432 28.0761 2.61816 27.8335 3.55057 27.8335C4.03479 27.8335 4.71618 27.9287 5.13761 28.0414C5.24523 28.0674 5.30802 28.0848 5.38864 28.076C5.39768 28.2754 5.44251 28.8216 5.51422 29.3508C5.46939 29.4113 5.33489 29.42 5.2721 29.3681C5.13761 28.7785 4.73413 28.102 3.43415 28.102C2.06223 28.102 0.8965 28.943 0.8965 30.7378C0.8965 32.5586 2.0891 33.5645 3.55949 33.5645C4.71618 33.5645 5.22727 32.836 5.43347 32.3244C5.49626 32.2813 5.63087 32.2986 5.66667 32.3593C5.604 32.8102 5.37081 33.3823 5.23631 33.5473C5.12869 33.5645 5.02108 33.5992 4.9225 33.6337C4.72509 33.7033 4.07962 33.8335 3.50586 33.8335C2.6989 33.8335 1.92773 33.6773 1.2731 33.2523C0.555808 32.7756 0 31.9866 0 30.8681C0 29.9055 0.44831 29.0819 1.12969 28.5703Z" fill="white"/>
<path id="Fill-8" fill-rule="evenodd" clip-rule="evenodd" d="M10.5746 31.5356C10.5746 30.3436 10.0209 29.0574 8.57189 29.0574C7.78284 29.0574 6.75869 29.5703 6.75869 31.1527C6.75869 32.2219 7.30489 33.6094 8.79933 33.6094C9.70981 33.6094 10.5746 32.9592 10.5746 31.5356ZM6 31.3838C6 29.9389 7.13792 28.8335 8.70073 28.8335C10.4533 28.8335 11.3333 30.0399 11.3333 31.3116C11.3333 32.771 10.1651 33.8335 8.70073 33.8335C7.01673 33.8335 6 32.6844 6 31.3838Z" fill="white"/>
<path id="Fill-9" fill-rule="evenodd" clip-rule="evenodd" d="M19.4549 30.9123C19.4549 30.4862 19.4417 29.6959 19.3293 29.4897C19.2832 29.4072 19.1643 29.359 18.9992 29.3452L18.8342 29.3315C18.7945 29.2832 18.8077 29.1941 18.8472 29.1665C19.0982 29.1803 19.3426 29.1872 19.6003 29.1872C19.8778 29.1872 20.0561 29.1803 20.294 29.1666C20.3466 29.2012 20.34 29.2903 20.3071 29.3315L20.1486 29.3452C19.9834 29.359 19.8578 29.421 19.8183 29.5104C19.7259 29.7371 19.7259 30.5275 19.7259 30.9123V31.6889C19.7259 32.2868 19.6333 32.9189 19.2635 33.3313C18.9794 33.6542 18.4906 33.8332 18.0018 33.8332C17.546 33.8332 17.0903 33.7436 16.7666 33.455C16.4165 33.1528 16.2513 32.651 16.2513 31.8332V30.2111C16.2513 29.4965 16.2381 29.3798 15.8552 29.3452L15.6899 29.3315C15.6504 29.3042 15.6635 29.1874 15.7031 29.1665C16.0334 29.1803 16.258 29.1872 16.5222 29.1872C16.793 29.1872 17.011 29.1803 17.3346 29.1666C17.3743 29.1874 17.3875 29.3042 17.3479 29.3315L17.1893 29.3452C16.8062 29.3798 16.793 29.4965 16.793 30.2111V31.6957C16.793 32.8021 17.1232 33.5308 18.1339 33.5308C19.0917 33.5308 19.4549 32.7471 19.4549 31.7026V30.9123Z" fill="white"/>
<path id="Fill-10" fill-rule="evenodd" clip-rule="evenodd" d="M29.0675 32.6559C29.0675 32.908 29.0843 33.2655 29.2444 33.4198C29.4045 33.5808 29.6573 33.616 29.91 33.616C30.6596 33.616 31.2326 33.3355 31.2326 32.6349C31.2326 32.0813 30.8956 31.4369 29.556 31.4369C29.1012 31.4369 29.0675 31.4788 29.0675 31.6188V32.6559ZM29.0675 31.0302C29.0675 31.2264 29.076 31.2404 29.5055 31.2264C30.3649 31.1984 30.8283 30.9884 30.8283 30.3294C30.8283 29.6427 30.2133 29.3835 29.573 29.3835C29.3876 29.3835 29.2614 29.3977 29.1853 29.4256C29.1012 29.4467 29.0675 29.4816 29.0675 29.6078V31.0302ZM28.3766 30.0983C28.3766 29.5798 28.343 29.4467 27.9639 29.4187L27.6942 29.3935C27.6634 29.3667 27.6472 29.2262 27.7026 29.2222C28.1577 29.1896 28.7304 29.1665 29.5141 29.1665C30.0448 29.1665 30.5501 29.2015 30.9294 29.3624C31.2916 29.5097 31.5694 29.7899 31.5694 30.2384C31.5694 30.743 31.2157 31.0024 30.7103 31.1984C30.7103 31.2686 30.7774 31.2896 30.8703 31.3037C31.3253 31.3735 31.9993 31.7241 31.9993 32.4737C31.9993 33.2866 31.2747 33.8332 29.7581 33.8332C29.5141 33.8332 29.1012 33.8118 28.7473 33.8118C28.3766 33.8118 28.0904 33.8259 27.7784 33.8332C27.728 33.8118 27.711 33.6999 27.7615 33.6581L27.9133 33.637C28.3597 33.5738 28.3766 33.4968 28.3766 32.7611V30.0983Z" fill="white"/>
<path id="Fill-11" fill-rule="evenodd" clip-rule="evenodd" d="M5 35.8333H35V35.5H5V35.8333Z" fill="#F3B229"/>
<g id="Group-14">
<g id="Mask group">
<mask id="mask0_746_105172" style="mask-type:luminance" maskUnits="userSpaceOnUse" x="5" y="0" width="30" height="15">
<g id="Group">
<path id="Vector" d="M34.5881 11.7619C33.0244 5.12303 27.0248 0.178711 19.8621 0.178711C12.5785 0.178711 6.49762 5.29097 5.06055 12.0989L8.25466 10.2917L10.0158 11.5152C10.0158 11.5152 11.0457 11.053 11.2625 10.917L12.536 12.2494C12.536 12.2494 15.3003 14.4247 15.3813 14.4247C15.4627 14.4247 17.8204 13.0651 17.8204 13.0651L19.9346 11.6239L21.777 12.9563L23.1589 13.2283L24.568 14.18C24.568 14.18 27.9828 11.923 28.5249 11.651C28.5249 11.651 30.0152 12.1951 30.1506 12.1678C30.2859 12.1406 32.6166 10.346 32.6166 10.346L34.5881 11.7619Z" fill="#FCBA19"/>
</g>
</mask>
<g mask="url(#mask0_746_105172)">
<path id="Fill-12" fill-rule="evenodd" clip-rule="evenodd" d="M34.5881 11.7619C33.0244 5.12303 27.0248 0.178711 19.8621 0.178711C12.5785 0.178711 6.49762 5.29097 5.06055 12.0989L8.25466 10.2917L10.0158 11.5152C10.0158 11.5152 11.0457 11.053 11.2625 10.917L12.536 12.2494C12.536 12.2494 15.3003 14.4247 15.3813 14.4247C15.4627 14.4247 17.8204 13.0651 17.8204 13.0651L19.9346 11.6239L21.777 12.9563L23.1589 13.2283L24.568 14.18C24.568 14.18 27.9828 11.923 28.5249 11.651C28.5249 11.651 30.0152 12.1951 30.1506 12.1678C30.2859 12.1406 32.6166 10.346 32.6166 10.346L34.5881 11.7619Z" fill="#FCBA19"/>
</g>
</g>
</g>
<g id="Group-38">
<g id="Mask group_2">
<mask id="mask1_746_105172" style="mask-type:luminance" maskUnits="userSpaceOnUse" x="8" y="1" width="24" height="15">
<g id="Group_2">
<path id="Vector_2" d="M17.9586 13.6816L20.0955 12.1901L21.9577 13.569L23.3545 13.8505L24.7788 14.8355C24.7788 14.8355 26.332 13.7843 27.5201 13.0074C27.3148 12.4581 27.0522 11.9376 26.7391 11.454L31.8953 7.39551L26.4137 10.9884C25.9213 10.3348 25.3319 9.76078 24.6673 9.2884L27.8993 3.65423L24.2036 8.98294C23.5145 8.56313 22.7574 8.2474 21.9523 8.05758L22.8778 1.57129L21.4074 7.95012C21.0043 7.88529 20.5909 7.85118 20.1697 7.85118C19.7214 7.85118 19.2819 7.88996 18.854 7.9632L17.3805 1.57129L18.3088 8.07721C17.511 8.27403 16.7607 8.5942 16.079 9.01764L12.359 3.65423L15.6146 9.32917C14.9615 9.80224 14.3827 10.3745 13.899 11.0241L8.36328 7.39551L13.5729 11.4963C13.2729 11.9662 13.0199 12.4703 12.8209 13.0012C13.4648 13.5184 15.4249 15.0888 15.4933 15.0888C15.5756 15.0888 17.9586 13.6816 17.9586 13.6816Z" fill="white"/>
</g>
</mask>
<g mask="url(#mask1_746_105172)">
<path id="Fill-36" fill-rule="evenodd" clip-rule="evenodd" d="M17.9586 13.6816L20.0955 12.1901L21.9577 13.569L23.3545 13.8505L24.7788 14.8355C24.7788 14.8355 26.332 13.7843 27.5201 13.0074C27.3148 12.4581 27.0522 11.9376 26.7391 11.454L31.8953 7.39551L26.4137 10.9884C25.9213 10.3348 25.3319 9.76078 24.6673 9.2884L27.8993 3.65423L24.2036 8.98294C23.5145 8.56313 22.7574 8.2474 21.9523 8.05758L22.8778 1.57129L21.4074 7.95012C21.0043 7.88529 20.5909 7.85118 20.1697 7.85118C19.7214 7.85118 19.2819 7.88996 18.854 7.9632L17.3805 1.57129L18.3088 8.07721C17.511 8.27403 16.7607 8.5942 16.079 9.01764L12.359 3.65423L15.6146 9.32917C14.9615 9.80224 14.3827 10.3745 13.899 11.0241L8.36328 7.39551L13.5729 11.4963C13.2729 11.9662 13.0199 12.4703 12.8209 13.0012C13.4648 13.5184 15.4249 15.0888 15.4933 15.0888C15.5756 15.0888 17.9586 13.6816 17.9586 13.6816Z" fill="white"/>
</g>
</g>
</g>
<path id="Path-2" fill-rule="evenodd" clip-rule="evenodd" d="M20.6953 8.16667L21.334 0.5H21.25L20.4936 6.34127L20.6953 0.5H20.6113L20.1743 7.07143L19.939 0.5H19.855V6.34127L19.418 0.5H19.334L19.6533 8.16667H20.6953Z" fill="white"/>
<path id="Path-2-Copy" fill-rule="evenodd" clip-rule="evenodd" d="M17.6514 8.81195L15.6294 1.3892L15.5504 1.41794L16.8376 7.16561L15.0292 1.60763L14.9503 1.63638L16.7872 7.96095L14.3186 1.86631L14.2396 1.89505L16.2374 7.38404L13.829 2.0445L13.75 2.07324L16.6722 9.16834L17.6514 8.81195Z" fill="white"/>
<path id="Path-2-Copy-3" fill-rule="evenodd" clip-rule="evenodd" d="M15.2998 10.1216L10.3302 4.24887L10.2708 4.30829L13.8664 8.97348L9.87863 4.70047L9.81921 4.75989L14.1569 9.71558L9.34384 5.23526L9.28442 5.29468L13.4148 9.42508L8.97544 5.60366L8.91602 5.66309L14.563 10.8584L15.2998 10.1216Z" fill="white"/>
<path id="Path-2-Copy-5" fill-rule="evenodd" clip-rule="evenodd" d="M24.7002 10.1216L29.6698 4.24887L29.7292 4.30829L26.1336 8.97348L30.1214 4.70047L30.1808 4.75989L25.8431 9.71558L30.6562 5.23526L30.7156 5.29468L26.5852 9.42508L31.0246 5.60367L31.084 5.66309L25.437 10.8584L24.7002 10.1216Z" fill="white"/>
<path id="Path-2-Copy-4" fill-rule="evenodd" clip-rule="evenodd" d="M13.7266 11.6383L6.74068 8.41602L6.71194 8.49499L11.9423 11.2035L6.52225 9.01616L6.49351 9.09513L12.5192 11.7533L6.26358 9.72686L6.23484 9.80582L11.7238 11.8037L6.08538 10.2164L6.05664 10.2954L13.3702 12.6175L13.7266 11.6383Z" fill="white"/>
<path id="Path-2-Copy-6" fill-rule="evenodd" clip-rule="evenodd" d="M26.0984 11.7479L32.771 8.63966L32.7998 8.71862L27.8081 11.3403L32.9895 9.2398L33.0182 9.31876L27.261 11.8792L33.2481 9.95049L33.2769 10.0295L28.0265 11.9404L33.4263 10.4401L33.4551 10.519L26.4548 12.7271L26.0984 11.7479Z" fill="white"/>
<path id="Path-2-Copy-2" fill-rule="evenodd" clip-rule="evenodd" d="M22.6826 8.81195L24.7046 1.3892L24.7836 1.41794L23.4964 7.16561L25.3047 1.60764L25.3837 1.63638L23.5468 7.96095L26.0154 1.86631L26.0944 1.89505L24.0966 7.38404L26.505 2.0445L26.584 2.07324L23.6618 9.16834L22.6826 8.81195Z" fill="white"/>
<path id="Fill-40" fill-rule="evenodd" clip-rule="evenodd" d="M11.8197 24.3821C11.6793 24.3821 11.3985 24.4343 11.3985 24.2486V22.9189C11.3985 22.399 11.4152 22.3247 12.0427 22.3247C12.7775 22.3247 13.2319 22.6959 13.2319 23.3793C13.2319 23.6763 13.1244 23.9512 12.852 24.137C12.5382 24.3524 12.1995 24.3821 11.8197 24.3821ZM14.6386 26.6599L14.4452 26.6432C14.4061 26.6391 14.3714 26.6342 14.3383 26.629C14.0553 26.579 13.9421 26.3282 13.8089 26.0957L13.1401 24.937C13.0246 24.7439 12.9006 24.4838 12.6363 24.4469C13.3217 24.3652 13.9412 23.9715 13.9412 23.2957C13.9412 22.5155 13.1648 22.1665 12.3803 22.1665C11.9097 22.1665 11.4807 22.1791 11.0017 22.1791C10.7375 22.1791 10.4233 22.1665 10.1591 22.1665C10.0123 22.1665 10.0105 22.1963 10.0105 22.2778C10.0105 22.3985 10.0617 22.3648 10.217 22.3734C10.775 22.4047 10.7535 22.5082 10.7535 22.9835V26.0214C10.7535 26.4564 10.7913 26.5862 10.3326 26.627C10.3326 26.627 10.2622 26.6342 10.2224 26.6384L10.028 26.6582C9.98158 26.6997 9.99713 26.8106 10.0435 26.8316C10.1468 26.8279 10.3302 26.8205 10.3302 26.8205C10.5841 26.8131 10.8382 26.7938 11.0921 26.7938C11.3476 26.7938 11.5921 26.8133 11.8432 26.8205V26.8209C11.9324 26.8237 12.0263 26.8267 12.1297 26.8305C12.1761 26.8097 12.1917 26.6987 12.1453 26.6573L11.9496 26.6389C11.9097 26.6347 11.841 26.6285 11.841 26.6285C11.3776 26.5972 11.406 26.4672 11.406 26.0214V24.8777C11.406 24.8107 11.3977 24.6325 11.4472 24.5807C11.4886 24.5358 11.5628 24.5433 11.6289 24.5433C12.2566 24.5433 12.2482 24.6028 12.5456 25.1226L13.3548 26.5712C13.4207 26.6827 13.4704 26.8237 13.6356 26.8237H14.3384C14.4271 26.8265 14.5205 26.8293 14.6231 26.8332C14.6696 26.8124 14.6851 26.7014 14.6386 26.6599Z" fill="white"/>
<path id="Fill-41" fill-rule="evenodd" clip-rule="evenodd" d="M12.056 30.2387C12.056 29.5031 12.0406 29.391 11.5549 29.3558L11.3619 29.3418C11.3157 29.3137 11.3311 29.1878 11.3774 29.1665C11.8093 29.1805 12.0715 29.1875 12.38 29.1875C12.6807 29.1875 12.943 29.1805 13.3286 29.1667C13.3749 29.1878 13.3904 29.3137 13.3441 29.3418L13.159 29.3558C12.704 29.391 12.6885 29.5031 12.6885 30.2387V32.6773C12.6885 33.1186 12.7117 33.3007 12.8504 33.4338C12.9352 33.5108 13.0817 33.5951 13.6911 33.5951C14.3468 33.5951 14.5087 33.5672 14.6322 33.5042C14.7865 33.4199 14.9869 33.1676 15.1411 32.8103C15.1875 32.7754 15.334 32.8033 15.334 32.8523C15.334 32.9296 15.1179 33.6442 15.01 33.8332C14.6167 33.8192 13.8839 33.8123 13.0895 33.8123H12.38C12.056 33.8123 11.8093 33.8192 11.3774 33.8332C11.3311 33.8123 11.3157 33.7 11.3619 33.6581L11.5933 33.6372C12.0406 33.5951 12.056 33.497 12.056 32.7615V30.2387Z" fill="white"/>
<path id="Fill-42" fill-rule="evenodd" clip-rule="evenodd" d="M33.02 30.2525C33.02 29.51 33.0048 29.391 32.553 29.3558L32.3617 29.3418C32.3159 29.3137 32.331 29.1878 32.3772 29.1665C32.7598 29.1805 33.02 29.1875 33.3417 29.1875C33.6479 29.1875 33.9081 29.1805 34.291 29.1667C34.3369 29.1878 34.3522 29.3137 34.3062 29.3418L34.1149 29.3558C33.6632 29.391 33.6479 29.51 33.6479 30.2525V32.7474C33.6479 33.4899 33.6632 33.5882 34.1149 33.6372L34.3062 33.6581C34.3522 33.6862 34.3369 33.8123 34.291 33.8332C33.9081 33.8192 33.6479 33.8123 33.3417 33.8123C33.02 33.8123 32.7598 33.8192 32.3772 33.8332C32.331 33.8123 32.3159 33.7 32.3617 33.6581L32.553 33.6372C33.0048 33.5882 33.02 33.4899 33.02 32.7474V30.2525Z" fill="white"/>
<path id="Fill-43" fill-rule="evenodd" clip-rule="evenodd" d="M26.7718 33.6358C26.7325 33.6318 26.6595 33.6258 26.6595 33.6258C26.5791 33.6178 26.5071 33.6065 26.45 33.5448C26.3512 33.4406 26.3595 33.1438 26.3595 33.0251V29.9589C26.3595 29.8251 26.3266 29.5358 26.4253 29.4318C26.475 29.3768 26.5777 29.3678 26.6693 29.3624C26.7249 29.3582 26.7263 29.3579 26.7751 29.3554L26.9709 29.3416C27.018 29.3136 27.0023 29.1876 26.9552 29.1665C26.8506 29.1703 26.7555 29.1689 26.665 29.1717V29.1721H25.8324C25.7419 29.1721 25.6595 29.1721 25.6102 29.2686L23.9137 32.7726L22.415 29.3874C22.3655 29.2686 22.3573 29.1721 22.2008 29.1721H21.3342C21.2439 29.1694 21.1442 29.1703 21.0397 29.1665C20.9927 29.1876 20.9769 29.3136 21.0239 29.3416L21.2198 29.3554C21.2602 29.3588 21.3334 29.3636 21.3334 29.3636C21.6583 29.3844 21.6786 29.4562 21.649 29.7956L21.3938 33.0843C21.3714 33.4145 21.3531 33.589 21.0045 33.621C21.0045 33.621 20.9306 33.6303 20.8902 33.6346L20.6944 33.6555C20.6474 33.6973 20.6631 33.8094 20.7101 33.8303C20.8134 33.8268 20.9968 33.8212 20.9968 33.8212C21.1735 33.8128 21.3538 33.7971 21.5339 33.7971C21.7281 33.7971 21.9227 33.8151 22.1172 33.823C22.2074 33.8259 22.3027 33.829 22.4073 33.8329C22.4544 33.8119 22.47 33.7 22.4232 33.658L22.2272 33.6371C22.1758 33.633 22.118 33.6274 22.118 33.6274C21.6147 33.5933 21.6258 33.2407 21.6572 32.8099L21.8962 29.7512H21.9538L23.576 33.5149C23.5925 33.5668 23.6171 33.6561 23.6997 33.6561C23.7738 33.6561 23.7984 33.5744 23.8231 33.5222L25.6512 29.6618H25.709V33.0251C25.709 33.1584 25.7253 33.4333 25.5855 33.5374C25.5121 33.591 25.2744 33.6236 25.2744 33.6236C25.2417 33.6288 25.2072 33.6332 25.1683 33.6375L24.9724 33.6584C24.9254 33.7003 24.9411 33.8123 24.988 33.8332C25.0912 33.8296 25.2744 33.8237 25.2744 33.8237C25.5397 33.8166 25.8095 33.7971 26.0795 33.7971C26.2733 33.7971 26.6535 33.8154 26.6535 33.8154C26.7439 33.8181 26.847 33.8278 26.9517 33.8317C26.9988 33.8107 27.0145 33.6988 26.9675 33.6568L26.7718 33.6358Z" fill="white"/>
<path id="Fill-44" fill-rule="evenodd" clip-rule="evenodd" d="M37.8847 31.9487H36.9551C36.9227 31.9487 36.6642 31.9778 36.6642 31.9047C36.6642 31.8827 36.6803 31.8388 36.6883 31.8171L37.2462 30.4846C37.2624 30.4481 37.3189 30.2653 37.3836 30.2653C37.4321 30.2653 37.4967 30.4554 37.5129 30.4846L38.0624 31.7291C38.0624 31.7436 38.1189 31.8606 38.1189 31.89C38.1189 31.9706 37.9332 31.9487 37.8847 31.9487ZM39.9713 33.6574L39.9446 33.6364C39.905 33.6323 39.8697 33.6277 39.8365 33.6226C39.5269 33.5559 39.406 33.1962 39.2919 32.9402L37.699 29.3042C37.6832 29.2607 37.6516 29.1665 37.5884 29.1665C37.5016 29.1665 37.478 29.268 37.4544 29.3258L35.9325 32.9549C35.8772 33.0922 35.7354 33.4255 35.6327 33.5268C35.5542 33.6045 35.4519 33.6194 35.3429 33.6301C35.3429 33.6301 35.257 33.6382 35.2159 33.6425L35.0289 33.6607C34.9811 33.7021 34.997 33.8126 35.0447 33.8332C35.1509 33.8297 35.3393 33.8232 35.3393 33.8232C35.5475 33.8204 35.7556 33.7951 35.9639 33.7951C36.1393 33.7951 36.3145 33.813 36.4898 33.8205C36.4898 33.8205 36.6779 33.827 36.784 33.8307C36.8317 33.81 36.8476 33.6995 36.8 33.6582L36.6013 33.6373C36.5618 33.6335 36.4934 33.627 36.4934 33.627C36.3105 33.6077 36.0824 33.576 36.0824 33.382C36.0824 33.2516 36.1454 33.0995 36.1927 32.9835L36.4292 32.4405C36.5476 32.1797 36.5003 32.1506 36.8156 32.1506H37.8881C38.2666 32.1506 38.2114 32.1506 38.3771 32.5202L38.6294 33.0705C38.6689 33.1647 38.7398 33.3243 38.7398 33.4255C38.7398 33.6075 38.5337 33.6196 38.3412 33.6354C38.3412 33.6354 38.2773 33.6406 38.222 33.6445L38.0309 33.658C37.9831 33.6993 37.9991 33.8098 38.0468 33.8305C38.1528 33.8269 38.3412 33.8195 38.3412 33.8195C38.5655 33.8116 38.7913 33.7951 39.0079 33.7951C39.2841 33.7951 39.5604 33.813 39.8366 33.8205C39.9272 33.8231 39.8505 33.8261 39.9553 33.8297C40.0029 33.8091 40.019 33.6986 39.9713 33.6574Z" fill="white"/>
<path id="Fill-39" fill-rule="evenodd" clip-rule="evenodd" d="M34.5757 11.6045L32.6242 10.2203C32.6242 10.2203 30.2867 11.9973 30.1511 12.0244C30.0153 12.0513 28.5207 11.5127 28.5207 11.5127C27.977 11.7819 24.5524 14.0169 24.5524 14.0169L23.1392 13.0745L21.7533 12.8051L19.9055 11.4857L17.7852 12.9128C17.7852 12.9128 15.4208 14.2592 15.339 14.2592C15.2579 14.2592 12.4855 12.105 12.4855 12.105L11.2084 10.7856C10.991 10.9202 9.95807 11.3781 9.95807 11.3781L8.19185 10.1665L5.01039 11.9435C4.7856 12.9623 4.66602 14.0194 4.66602 15.1042C4.66602 16.0548 4.75789 16.9841 4.93185 17.885C6.26455 17.647 8.6949 17.3087 10.7055 17.5575C13.6406 17.9212 15.475 18.4057 18.5734 19.0924C21.6714 19.7791 23.9545 20.4253 27.2971 20.0618C30.4264 19.7216 32.6982 19.0978 34.7808 17.628C34.924 16.8076 34.9993 15.9646 34.9993 15.1042C34.9993 13.8986 34.8521 12.727 34.5757 11.6045Z" fill="#5475A7"/>
</g>
</g>
</g>
<defs>
<clipPath id="clip0_746_105172">
<rect width="40" height="35.6667" fill="white" transform="translate(0 0.166504)"/>
</clipPath>
</defs>
</svg>
