<svg width="40" height="36" viewBox="0 0 40 36" fill="none" xmlns="http://www.w3.org/2000/svg">
<g id="logo-vertical 1" clip-path="url(#clip0_3500_6441)">
<g id="1.0---Login">
<g id="gov_v_pos-(1)">
<path id="Fill-1" fill-rule="evenodd" clip-rule="evenodd" d="M6.17438 25.4031C6.17438 25.7094 6.19258 26.1433 6.365 26.3305C6.53753 26.526 6.8098 26.5688 7.08207 26.5688C7.88967 26.5688 8.50677 26.2285 8.50677 25.3776C8.50677 24.7053 8.14374 23.9227 6.70084 23.9227C6.21078 23.9227 6.17438 23.9739 6.17438 24.1439V25.4031ZM6.17438 23.429C6.17438 23.6674 6.18348 23.6844 6.64637 23.6674C7.57202 23.6333 8.0713 23.3781 8.0713 22.5784C8.0713 21.7445 7.4087 21.4298 6.71904 21.4298C6.51933 21.4298 6.38319 21.4466 6.30153 21.4807C6.21078 21.5063 6.17438 21.549 6.17438 21.7019V23.429ZM5.43024 22.2977C5.43024 21.6681 5.3876 21.5011 4.97919 21.4672L4.6952 21.4466C4.64891 21.4084 4.66199 21.238 4.7043 21.2341C5.19414 21.1886 5.81147 21.166 6.65546 21.166C7.22719 21.166 7.77173 21.2084 8.18025 21.4043C8.57046 21.5828 8.8698 21.9231 8.8698 22.4678C8.8698 23.0804 8.48869 23.3952 7.94414 23.6333C7.94414 23.7184 8.01682 23.7441 8.11656 23.7609C8.60663 23.8462 9.33268 24.2713 9.33268 25.1818C9.33268 26.169 8.55226 26.8327 6.91852 26.8327C6.65546 26.8327 6.21078 26.8069 5.82955 26.8069C5.43024 26.8069 5.12169 26.8243 4.78585 26.8327C4.73148 26.8069 4.71329 26.6709 4.76776 26.6196L4.93119 26.5941C5.41205 26.5175 5.43024 26.424 5.43024 25.5307V22.2977Z" fill="white"/>
<path id="Fill-2" fill-rule="evenodd" clip-rule="evenodd" d="M16.0201 23.2523C16.0201 22.5096 16.0048 22.3905 15.5532 22.3554L15.3617 22.3413C15.3158 22.3133 15.3311 22.1874 15.3771 22.166C15.7599 22.1802 16.0201 22.1874 16.3417 22.1874C16.6479 22.1874 16.9081 22.1802 17.291 22.166C17.3369 22.1874 17.3522 22.3133 17.3062 22.3413L17.1148 22.3554C16.6632 22.3905 16.6479 22.5096 16.6479 23.2523V25.7468C16.6479 26.4893 16.6632 26.5874 17.1148 26.6365L17.3062 26.6574C17.3522 26.6855 17.3369 26.8115 17.291 26.8327C16.9081 26.8185 16.6479 26.8115 16.3417 26.8115C16.0201 26.8115 15.7599 26.8185 15.3771 26.8327C15.3311 26.8115 15.3158 26.6995 15.3617 26.6574L15.5532 26.6365C16.0048 26.5874 16.0201 26.4893 16.0201 25.7468V23.2523Z" fill="white"/>
<path id="Fill-3" fill-rule="evenodd" clip-rule="evenodd" d="M20.2861 25.8067C20.2861 26.5107 20.3006 26.6112 20.7215 26.645L20.9538 26.6649C20.9973 26.6918 20.9829 26.8124 20.9394 26.8327C20.5256 26.8191 20.279 26.8124 19.9885 26.8124C19.6982 26.8124 19.4442 26.8191 18.9798 26.8327C18.9362 26.8124 18.9217 26.6986 18.9798 26.6649L19.241 26.645C19.6547 26.6112 19.691 26.5107 19.691 25.8067V22.809C19.691 22.6011 19.691 22.5946 19.4732 22.5946H19.074C18.762 22.5946 18.3628 22.6078 18.1814 22.762C18.0072 22.9095 17.9347 23.0573 17.8549 23.2248C17.7967 23.2651 17.6952 23.2315 17.666 23.1779C17.7822 22.8762 17.8911 22.4469 17.9418 22.1786C17.9638 22.1653 18.0581 22.1586 18.0798 22.1786C18.1234 22.3931 18.3628 22.3867 18.6968 22.3867H21.636C22.0279 22.3867 22.0933 22.3731 22.2022 22.1988C22.2384 22.1854 22.3182 22.1922 22.3327 22.2188C22.253 22.4939 22.2022 23.037 22.2239 23.2384C22.1949 23.292 22.0714 23.292 22.0353 23.2517C22.0134 23.0838 21.9626 22.8358 21.8538 22.762C21.6867 22.6479 21.4112 22.5946 21.0119 22.5946H20.4967C20.279 22.5946 20.2861 22.6011 20.2861 22.8225V25.8067Z" fill="white"/>
<path id="Fill-4" fill-rule="evenodd" clip-rule="evenodd" d="M23.352 23.2523C23.352 22.5096 23.3368 22.3905 22.8851 22.3554L22.6938 22.3413C22.6478 22.3133 22.6631 22.1874 22.709 22.166C23.0918 22.1802 23.352 22.1874 23.6737 22.1874C23.9798 22.1874 24.2401 22.1802 24.623 22.166C24.6689 22.1874 24.6842 22.3133 24.6383 22.3413L24.4467 22.3554C23.9952 22.3905 23.9798 22.5096 23.9798 23.2523V25.7468C23.9798 26.4893 23.9952 26.5874 24.4467 26.6365L24.6383 26.6574C24.6842 26.6855 24.6689 26.8115 24.623 26.8327C24.2401 26.8185 23.9798 26.8115 23.6737 26.8115C23.352 26.8115 23.0918 26.8185 22.709 26.8327C22.6631 26.8115 22.6478 26.6995 22.6938 26.6574L22.8851 26.6365C23.3368 26.5874 23.352 26.4893 23.352 25.7468V23.2523Z" fill="white"/>
<path id="Fill-5" fill-rule="evenodd" clip-rule="evenodd" d="M26.8744 26.8327C26.1673 26.8327 25.7212 26.6572 25.5612 26.5833C25.46 26.4347 25.3508 25.956 25.334 25.6389C25.376 25.5918 25.5023 25.5785 25.5361 25.6188C25.6623 25.9628 26.0073 26.6233 26.9839 26.6233C27.691 26.6233 28.036 26.2525 28.036 25.8481C28.036 25.5516 27.9604 25.221 27.3457 24.904L26.5462 24.4858C26.1252 24.2635 25.637 23.879 25.637 23.326C25.637 22.6854 26.26 22.166 27.3542 22.166C27.6151 22.166 27.9182 22.2068 28.137 22.2539C28.2465 22.2809 28.3642 22.2942 28.4316 22.2942C28.5075 22.4563 28.5833 22.8338 28.5833 23.117C28.5495 23.1576 28.4149 23.1776 28.3728 23.1373C28.2634 22.8136 28.036 22.3753 27.2279 22.3753C26.4031 22.3753 26.2263 22.8136 26.2263 23.1237C26.2263 23.515 26.6302 23.7982 26.9417 23.9532L27.6151 24.2904C28.1455 24.5533 28.6673 24.9443 28.6673 25.585C28.6673 26.3268 27.9688 26.8327 26.8744 26.8327Z" fill="white"/>
<path id="Fill-6" fill-rule="evenodd" clip-rule="evenodd" d="M31.0554 24.5484C30.681 24.5484 30.6653 24.5625 30.6653 24.7727V25.7607C30.6653 26.4963 30.7044 26.5946 31.1413 26.6365L31.3675 26.6574C31.4144 26.6855 31.3988 26.8115 31.352 26.8327C30.9306 26.8185 30.6653 26.8115 30.3611 26.8115C30.0254 26.8115 29.7602 26.8255 29.456 26.8327C29.4091 26.8115 29.3935 26.6995 29.4404 26.6574L29.5729 26.6365C30.01 26.5665 30.0254 26.4963 30.0254 25.7607V23.2383C30.0254 22.5025 29.9709 22.3835 29.5651 22.3554L29.3622 22.3413C29.3155 22.3133 29.331 22.1874 29.3778 22.166C29.7602 22.1732 30.0254 22.1874 30.3611 22.1874C30.6653 22.1874 30.9306 22.1802 31.2661 22.166C31.3131 22.1874 31.3285 22.3133 31.2818 22.3413L31.1335 22.3554C30.681 22.3975 30.6653 22.5025 30.6653 23.2383V24.0439C30.6653 24.2612 30.681 24.2681 31.0554 24.2681H33.287C33.6615 24.2681 33.6772 24.2612 33.6772 24.0439V23.2383C33.6772 22.5025 33.6615 22.3975 33.2012 22.3554L33.0532 22.3413C33.006 22.3133 33.0217 22.1874 33.0686 22.166C33.4276 22.1802 33.6929 22.1874 34.0127 22.1874C34.317 22.1874 34.5822 22.1802 34.9334 22.166C34.9802 22.1874 34.9958 22.3133 34.949 22.3413L34.7851 22.3554C34.3327 22.3975 34.317 22.5025 34.317 23.2383V25.7607C34.317 26.4963 34.3327 26.5874 34.7851 26.6365L34.9724 26.6574C35.0191 26.6855 35.0037 26.8115 34.9569 26.8327C34.5822 26.8185 34.317 26.8115 34.0127 26.8115C33.6929 26.8115 33.412 26.8185 33.0686 26.8327C33.0217 26.8115 33.006 26.6995 33.0532 26.6574L33.2012 26.6365C33.6772 26.5665 33.6772 26.4963 33.6772 25.7607V24.7727C33.6772 24.5625 33.6615 24.5484 33.287 24.5484H31.0554Z" fill="white"/>
<path id="Fill-7" fill-rule="evenodd" clip-rule="evenodd" d="M1.12969 28.5688C1.78432 28.0746 2.61816 27.832 3.55057 27.832C4.03479 27.832 4.71618 27.9272 5.13761 28.04C5.24523 28.0659 5.30802 28.0834 5.38864 28.0746C5.39768 28.274 5.44251 28.8201 5.51422 29.3493C5.46939 29.4098 5.33489 29.4186 5.2721 29.3666C5.13761 28.777 4.73413 28.1005 3.43415 28.1005C2.06223 28.1005 0.8965 28.9415 0.8965 30.7364C0.8965 32.5572 2.0891 33.563 3.55949 33.563C4.71618 33.563 5.22727 32.8346 5.43347 32.3229C5.49626 32.2799 5.63087 32.2972 5.66667 32.3579C5.604 32.8087 5.37081 33.3808 5.23631 33.5459C5.12869 33.563 5.02108 33.5978 4.9225 33.6323C4.72509 33.7019 4.07962 33.832 3.50586 33.832C2.6989 33.832 1.92773 33.6758 1.2731 33.2508C0.555808 32.7741 0 31.9852 0 30.8666C0 29.904 0.44831 29.0805 1.12969 28.5688Z" fill="white"/>
<path id="Fill-8" fill-rule="evenodd" clip-rule="evenodd" d="M10.5746 31.5341C10.5746 30.3421 10.0209 29.0559 8.57189 29.0559C7.78284 29.0559 6.75869 29.5688 6.75869 31.1512C6.75869 32.2204 7.30489 33.6079 8.79933 33.6079C9.70981 33.6079 10.5746 32.9577 10.5746 31.5341ZM6 31.3823C6 29.9375 7.13792 28.832 8.70073 28.832C10.4533 28.832 11.3333 30.0384 11.3333 31.3101C11.3333 32.7696 10.1651 33.832 8.70073 33.832C7.01673 33.832 6 32.683 6 31.3823Z" fill="white"/>
<path id="Fill-9" fill-rule="evenodd" clip-rule="evenodd" d="M19.4549 30.9118C19.4549 30.4857 19.4417 29.6954 19.3293 29.4892C19.2832 29.4067 19.1643 29.3585 18.9992 29.3447L18.8342 29.331C18.7945 29.2827 18.8077 29.1937 18.8472 29.166C19.0982 29.1798 19.3426 29.1867 19.6003 29.1867C19.8778 29.1867 20.0561 29.1798 20.294 29.1661C20.3466 29.2007 20.34 29.2898 20.3071 29.331L20.1486 29.3447C19.9834 29.3585 19.8578 29.4205 19.8183 29.5099C19.7259 29.7366 19.7259 30.527 19.7259 30.9118V31.6884C19.7259 32.2863 19.6333 32.9184 19.2635 33.3309C18.9794 33.6537 18.4906 33.8327 18.0018 33.8327C17.546 33.8327 17.0903 33.7431 16.7666 33.4545C16.4165 33.1523 16.2513 32.6505 16.2513 31.8327V30.2106C16.2513 29.4961 16.2381 29.3793 15.8552 29.3447L15.6899 29.331C15.6504 29.3037 15.6635 29.1869 15.7031 29.166C16.0334 29.1798 16.258 29.1867 16.5222 29.1867C16.793 29.1867 17.011 29.1798 17.3346 29.1661C17.3743 29.1869 17.3875 29.3037 17.3479 29.331L17.1893 29.3447C16.8062 29.3793 16.793 29.4961 16.793 30.2106V31.6952C16.793 32.8016 17.1232 33.5303 18.1339 33.5303C19.0917 33.5303 19.4549 32.7467 19.4549 31.7021V30.9118Z" fill="white"/>
<path id="Fill-10" fill-rule="evenodd" clip-rule="evenodd" d="M29.0675 32.6555C29.0675 32.9075 29.0843 33.265 29.2444 33.4193C29.4045 33.5803 29.6573 33.6155 29.91 33.6155C30.6596 33.6155 31.2326 33.335 31.2326 32.6344C31.2326 32.0808 30.8956 31.4364 29.556 31.4364C29.1012 31.4364 29.0675 31.4783 29.0675 31.6183V32.6555ZM29.0675 31.0297C29.0675 31.2259 29.076 31.24 29.5055 31.2259C30.3649 31.1979 30.8283 30.9879 30.8283 30.3289C30.8283 29.6422 30.2133 29.383 29.573 29.383C29.3876 29.383 29.2614 29.3972 29.1853 29.4251C29.1012 29.4462 29.0675 29.4811 29.0675 29.6073V31.0297ZM28.3766 30.0979C28.3766 29.5793 28.343 29.4462 27.9639 29.4182L27.6942 29.393C27.6634 29.3662 27.6472 29.2257 27.7026 29.2217C28.1577 29.1891 28.7304 29.166 29.5141 29.166C30.0448 29.166 30.5501 29.201 30.9294 29.3619C31.2916 29.5092 31.5694 29.7894 31.5694 30.238C31.5694 30.7425 31.2157 31.0019 30.7103 31.1979C30.7103 31.2681 30.7774 31.2891 30.8703 31.3032C31.3253 31.373 31.9993 31.7236 31.9993 32.4732C31.9993 33.2861 31.2747 33.8327 29.7581 33.8327C29.5141 33.8327 29.1012 33.8113 28.7473 33.8113C28.3766 33.8113 28.0904 33.8255 27.7784 33.8327C27.728 33.8113 27.711 33.6994 27.7615 33.6576L27.9133 33.6366C28.3597 33.5733 28.3766 33.4963 28.3766 32.7606V30.0979Z" fill="white"/>
<path id="Fill-11" fill-rule="evenodd" clip-rule="evenodd" d="M5 35.8314H35V35.498H5V35.8314Z" fill="#EFA20F"/>
<g id="Group-14">
<g id="Mask group">
<path id="Fill-12" fill-rule="evenodd" clip-rule="evenodd" d="M34.5881 11.7609C33.0244 5.12206 27.0248 0.177734 19.8621 0.177734C12.5785 0.177734 6.49762 5.28999 5.06055 12.0979L8.25466 10.2907L10.0158 11.5143C10.0158 11.5143 11.0457 11.052 11.2625 10.916L12.536 12.2484C12.536 12.2484 15.3003 14.4237 15.3813 14.4237C15.4627 14.4237 17.8204 13.0641 17.8204 13.0641L19.9346 11.623L21.777 12.9553L23.1589 13.2273L24.568 14.179C24.568 14.179 27.9828 11.922 28.5249 11.65C28.5249 11.65 30.0152 12.1941 30.1506 12.1668C30.2859 12.1396 32.6166 10.345 32.6166 10.345L34.5881 11.7609Z" fill="#EFA20F"/>
</g>
</g>
<g id="Group-38">
<g id="Mask group_2">
<mask id="mask0_3500_6441" style="mask-type:luminance" maskUnits="userSpaceOnUse" x="8" y="1" width="24" height="15">
<g id="Group">
<path id="Vector" d="M17.9586 13.6806L20.0955 12.1891L21.9577 13.568L23.3545 13.8495L24.7788 14.8346C24.7788 14.8346 26.332 13.7833 27.5201 13.0064C27.3148 12.4572 27.0522 11.9367 26.7391 11.4531L31.8953 7.39453L26.4137 10.9875C25.9213 10.3338 25.3319 9.7598 24.6673 9.28742L27.8993 3.65325L24.2036 8.98197C23.5145 8.56216 22.7574 8.24642 21.9523 8.05661L22.8778 1.57031L21.4074 7.94914C21.0043 7.88431 20.5909 7.8502 20.1697 7.8502C19.7214 7.8502 19.2819 7.88899 18.854 7.96222L17.3805 1.57031L18.3088 8.07623C17.511 8.27305 16.7607 8.59323 16.079 9.01666L12.359 3.65325L15.6146 9.32819C14.9615 9.80127 14.3827 10.3735 13.899 11.0231L8.36328 7.39453L13.5729 11.4953C13.2729 11.9653 13.0199 12.4693 12.8209 13.0002C13.4648 13.5174 15.4249 15.0878 15.4933 15.0878C15.5756 15.0878 17.9586 13.6806 17.9586 13.6806Z" fill="white"/>
</g>
</mask>
<g mask="url(#mask0_3500_6441)">
<path id="Fill-36" fill-rule="evenodd" clip-rule="evenodd" d="M17.9586 13.6806L20.0955 12.1891L21.9577 13.568L23.3545 13.8495L24.7788 14.8346C24.7788 14.8346 26.332 13.7833 27.5201 13.0064C27.3148 12.4572 27.0522 11.9367 26.7391 11.4531L31.8953 7.39453L26.4137 10.9875C25.9213 10.3338 25.3319 9.7598 24.6673 9.28742L27.8993 3.65325L24.2036 8.98197C23.5145 8.56216 22.7574 8.24642 21.9523 8.05661L22.8778 1.57031L21.4074 7.94914C21.0043 7.88431 20.5909 7.8502 20.1697 7.8502C19.7214 7.8502 19.2819 7.88899 18.854 7.96222L17.3805 1.57031L18.3088 8.07623C17.511 8.27305 16.7607 8.59323 16.079 9.01666L12.359 3.65325L15.6146 9.32819C14.9615 9.80127 14.3827 10.3735 13.899 11.0231L8.36328 7.39453L13.5729 11.4953C13.2729 11.9653 13.0199 12.4693 12.8209 13.0002C13.4648 13.5174 15.4249 15.0878 15.4933 15.0878C15.5756 15.0878 17.9586 13.6806 17.9586 13.6806Z" fill="white"/>
</g>
</g>
</g>
<path id="Path-2" fill-rule="evenodd" clip-rule="evenodd" d="M20.6953 8.16471L21.334 0.498047H21.25L20.4936 6.33932L20.6953 0.498047H20.6113L20.1743 7.06948L19.939 0.498047H19.855V6.33932L19.418 0.498047H19.334L19.6533 8.16471H20.6953Z" fill="white"/>
<path id="Path-2-Copy" fill-rule="evenodd" clip-rule="evenodd" d="M17.6514 8.81097L15.6294 1.38823L15.5504 1.41697L16.8376 7.16464L15.0292 1.60666L14.9503 1.6354L16.7872 7.95998L14.3186 1.86533L14.2396 1.89407L16.2374 7.38307L13.829 2.04352L13.75 2.07227L16.6722 9.16736L17.6514 8.81097Z" fill="white"/>
<path id="Path-2-Copy-3" fill-rule="evenodd" clip-rule="evenodd" d="M15.2998 10.1206L10.3302 4.2479L10.2708 4.30732L13.8664 8.9725L9.87863 4.69949L9.81921 4.75891L14.1569 9.7146L9.34384 5.23428L9.28442 5.2937L13.4148 9.4241L8.97544 5.60269L8.91602 5.66211L14.563 10.8575L15.2998 10.1206Z" fill="white"/>
<path id="Path-2-Copy-5" fill-rule="evenodd" clip-rule="evenodd" d="M24.7002 10.1206L29.6698 4.2479L29.7292 4.30732L26.1336 8.97251L30.1214 4.69949L30.1808 4.75891L25.8431 9.7146L30.6562 5.23428L30.7156 5.2937L26.5852 9.4241L31.0246 5.60269L31.084 5.66211L25.437 10.8575L24.7002 10.1206Z" fill="white"/>
<path id="Path-2-Copy-4" fill-rule="evenodd" clip-rule="evenodd" d="M13.7266 11.6378L6.74068 8.41554L6.71194 8.4945L11.9423 11.203L6.52225 9.01568L6.49351 9.09464L12.5192 11.7528L6.26358 9.72637L6.23484 9.80533L11.7238 11.8032L6.08538 10.216L6.05664 10.2949L13.3702 12.617L13.7266 11.6378Z" fill="white"/>
<path id="Path-2-Copy-6" fill-rule="evenodd" clip-rule="evenodd" d="M26.0984 11.7465L32.771 8.63819L32.7998 8.71716L27.8081 11.3388L32.9895 9.23833L33.0182 9.3173L27.261 11.8778L33.2481 9.94903L33.2769 10.028L28.0265 11.939L33.4263 10.4386L33.4551 10.5176L26.4548 12.7257L26.0984 11.7465Z" fill="white"/>
<path id="Path-2-Copy-2" fill-rule="evenodd" clip-rule="evenodd" d="M22.6826 8.81097L24.7046 1.38823L24.7836 1.41697L23.4964 7.16464L25.3047 1.60666L25.3837 1.6354L23.5468 7.95998L26.0154 1.86533L26.0944 1.89407L24.0966 7.38307L26.505 2.04352L26.584 2.07227L23.6618 9.16736L22.6826 8.81097Z" fill="white"/>
<path id="Fill-40" fill-rule="evenodd" clip-rule="evenodd" d="M11.8197 24.3816C11.6793 24.3816 11.3985 24.4338 11.3985 24.2481V22.9184C11.3985 22.3986 11.4152 22.3242 12.0427 22.3242C12.7775 22.3242 13.2319 22.6954 13.2319 23.3789C13.2319 23.6759 13.1244 23.9507 12.852 24.1365C12.5382 24.3519 12.1995 24.3816 11.8197 24.3816ZM14.6386 26.6594L14.4452 26.6427C14.4061 26.6386 14.3714 26.6337 14.3383 26.6285C14.0553 26.5785 13.9421 26.3277 13.8089 26.0952L13.1401 24.9366C13.0246 24.7434 12.9006 24.4833 12.6363 24.4464C13.3217 24.3647 13.9412 23.971 13.9412 23.2952C13.9412 22.5151 13.1648 22.166 12.3803 22.166C11.9097 22.166 11.4807 22.1787 11.0017 22.1787C10.7375 22.1787 10.4233 22.166 10.1591 22.166C10.0123 22.166 10.0105 22.1958 10.0105 22.2773C10.0105 22.398 10.0617 22.3644 10.217 22.3729C10.775 22.4042 10.7535 22.5077 10.7535 22.983V26.0209C10.7535 26.4559 10.7913 26.5857 10.3326 26.6266C10.3326 26.6266 10.2622 26.6337 10.2224 26.638L10.028 26.6577C9.98158 26.6993 9.99713 26.8101 10.0435 26.8311C10.1468 26.8274 10.3302 26.82 10.3302 26.82C10.5841 26.8126 10.8382 26.7933 11.0921 26.7933C11.3476 26.7933 11.5921 26.8128 11.8432 26.82V26.8204C11.9324 26.8232 12.0263 26.8262 12.1297 26.83C12.1761 26.8092 12.1917 26.6982 12.1453 26.6568L11.9496 26.6384C11.9097 26.6342 11.841 26.628 11.841 26.628C11.3776 26.5968 11.406 26.4667 11.406 26.0209V24.8772C11.406 24.8102 11.3977 24.632 11.4472 24.5802C11.4886 24.5354 11.5628 24.5428 11.6289 24.5428C12.2566 24.5428 12.2482 24.6023 12.5456 25.1221L13.3548 26.5707C13.4207 26.6822 13.4704 26.8232 13.6356 26.8232H14.3384C14.4271 26.826 14.5205 26.8288 14.6231 26.8327C14.6696 26.8119 14.6851 26.7009 14.6386 26.6594Z" fill="white"/>
<path id="Fill-41" fill-rule="evenodd" clip-rule="evenodd" d="M12.056 30.2382C12.056 29.5026 12.0406 29.3905 11.5549 29.3553L11.3619 29.3413C11.3157 29.3132 11.3311 29.1874 11.3774 29.166C11.8093 29.1801 12.0715 29.187 12.38 29.187C12.6807 29.187 12.943 29.1801 13.3286 29.1662C13.3749 29.1874 13.3904 29.3132 13.3441 29.3413L13.159 29.3553C12.704 29.3905 12.6885 29.5026 12.6885 30.2382V32.6768C12.6885 33.1181 12.7117 33.3003 12.8504 33.4333C12.9352 33.5103 13.0817 33.5947 13.6911 33.5947C14.3468 33.5947 14.5087 33.5667 14.6322 33.5037C14.7865 33.4194 14.9869 33.1671 15.1411 32.8098C15.1875 32.7749 15.334 32.8029 15.334 32.8518C15.334 32.9291 15.1179 33.6437 15.01 33.8327C14.6167 33.8188 13.8839 33.8118 13.0895 33.8118H12.38C12.056 33.8118 11.8093 33.8188 11.3774 33.8327C11.3311 33.8118 11.3157 33.6995 11.3619 33.6576L11.5933 33.6368C12.0406 33.5947 12.056 33.4965 12.056 32.761V30.2382Z" fill="white"/>
<path id="Fill-42" fill-rule="evenodd" clip-rule="evenodd" d="M33.02 30.252C33.02 29.5095 33.0048 29.3905 32.553 29.3553L32.3617 29.3413C32.3159 29.3132 32.331 29.1874 32.3772 29.166C32.7598 29.1801 33.02 29.187 33.3417 29.187C33.6479 29.187 33.9081 29.1801 34.291 29.1662C34.3369 29.1874 34.3522 29.3132 34.3062 29.3413L34.1149 29.3553C33.6632 29.3905 33.6479 29.5095 33.6479 30.252V32.7469C33.6479 33.4894 33.6632 33.5877 34.1149 33.6368L34.3062 33.6576C34.3522 33.6857 34.3369 33.8118 34.291 33.8327C33.9081 33.8188 33.6479 33.8118 33.3417 33.8118C33.02 33.8118 32.7598 33.8188 32.3772 33.8327C32.331 33.8118 32.3159 33.6995 32.3617 33.6576L32.553 33.6368C33.0048 33.5877 33.02 33.4894 33.02 32.7469V30.252Z" fill="white"/>
<path id="Fill-43" fill-rule="evenodd" clip-rule="evenodd" d="M26.7718 33.6353C26.7325 33.6313 26.6595 33.6253 26.6595 33.6253C26.5791 33.6173 26.5071 33.606 26.45 33.5443C26.3512 33.4401 26.3595 33.1433 26.3595 33.0246V29.9584C26.3595 29.8246 26.3266 29.5353 26.4253 29.4313C26.475 29.3764 26.5777 29.3674 26.6693 29.3619C26.7249 29.3577 26.7263 29.3574 26.7751 29.3549L26.9709 29.3412C27.018 29.3131 27.0023 29.1871 26.9552 29.166C26.8506 29.1698 26.7555 29.1684 26.665 29.1713V29.1716H25.8324C25.7419 29.1716 25.6595 29.1716 25.6102 29.2681L23.9137 32.7721L22.415 29.387C22.3655 29.2681 22.3573 29.1716 22.2008 29.1716H21.3342C21.2439 29.1689 21.1442 29.1698 21.0397 29.166C20.9927 29.1871 20.9769 29.3131 21.0239 29.3412L21.2198 29.3549C21.2602 29.3584 21.3334 29.3631 21.3334 29.3631C21.6583 29.3839 21.6786 29.4557 21.649 29.7951L21.3938 33.0838C21.3714 33.414 21.3531 33.5885 21.0045 33.6205C21.0045 33.6205 20.9306 33.6299 20.8902 33.6341L20.6944 33.655C20.6474 33.6969 20.6631 33.8089 20.7101 33.8298C20.8134 33.8263 20.9968 33.8207 20.9968 33.8207C21.1735 33.8123 21.3538 33.7966 21.5339 33.7966C21.7281 33.7966 21.9227 33.8146 22.1172 33.8225C22.2074 33.8254 22.3027 33.8285 22.4073 33.8325C22.4544 33.8114 22.47 33.6995 22.4232 33.6575L22.2272 33.6366C22.1758 33.6325 22.118 33.6269 22.118 33.6269C21.6147 33.5928 21.6258 33.2402 21.6572 32.8094L21.8962 29.7507H21.9538L23.576 33.5144C23.5925 33.5663 23.6171 33.6556 23.6997 33.6556C23.7738 33.6556 23.7984 33.5739 23.8231 33.5217L25.6512 29.6613H25.709V33.0246C25.709 33.1579 25.7253 33.4328 25.5855 33.5369C25.5121 33.5905 25.2744 33.6231 25.2744 33.6231C25.2417 33.6283 25.2072 33.6327 25.1683 33.637L24.9724 33.6579C24.9254 33.6998 24.9411 33.8118 24.988 33.8327C25.0912 33.8292 25.2744 33.8232 25.2744 33.8232C25.5397 33.8162 25.8095 33.7966 26.0795 33.7966C26.2733 33.7966 26.6535 33.8149 26.6535 33.8149C26.7439 33.8176 26.847 33.8273 26.9517 33.8312C26.9988 33.8102 27.0145 33.6983 26.9675 33.6563L26.7718 33.6353Z" fill="white"/>
<path id="Fill-44" fill-rule="evenodd" clip-rule="evenodd" d="M37.8847 31.9482H36.9551C36.9227 31.9482 36.6642 31.9773 36.6642 31.9042C36.6642 31.8822 36.6803 31.8383 36.6883 31.8166L37.2462 30.4841C37.2624 30.4476 37.3189 30.2648 37.3836 30.2648C37.4321 30.2648 37.4967 30.4549 37.5129 30.4841L38.0624 31.7286C38.0624 31.7431 38.1189 31.8601 38.1189 31.8895C38.1189 31.9702 37.9332 31.9482 37.8847 31.9482ZM39.9713 33.6569L39.9446 33.636C39.905 33.6318 39.8697 33.6272 39.8365 33.6221C39.5269 33.5555 39.406 33.1957 39.2919 32.9398L37.699 29.3037C37.6832 29.2602 37.6516 29.166 37.5884 29.166C37.5016 29.166 37.478 29.2675 37.4544 29.3253L35.9325 32.9544C35.8772 33.0917 35.7354 33.4251 35.6327 33.5263C35.5542 33.604 35.4519 33.6189 35.3429 33.6297C35.3429 33.6297 35.257 33.6378 35.2159 33.642L35.0289 33.6602C34.9811 33.7016 34.997 33.8121 35.0447 33.8327C35.1509 33.8292 35.3393 33.8227 35.3393 33.8227C35.5475 33.8199 35.7556 33.7946 35.9639 33.7946C36.1393 33.7946 36.3145 33.8126 36.4898 33.82C36.4898 33.82 36.6779 33.8265 36.784 33.8302C36.8317 33.8095 36.8476 33.699 36.8 33.6578L36.6013 33.6369C36.5618 33.633 36.4934 33.6265 36.4934 33.6265C36.3105 33.6072 36.0824 33.5755 36.0824 33.3816C36.0824 33.2511 36.1454 33.099 36.1927 32.983L36.4292 32.4401C36.5476 32.1792 36.5003 32.1501 36.8156 32.1501H37.8881C38.2666 32.1501 38.2114 32.1501 38.3771 32.5198L38.6294 33.07C38.6689 33.1642 38.7398 33.3238 38.7398 33.4251C38.7398 33.6071 38.5337 33.6191 38.3412 33.6349C38.3412 33.6349 38.2773 33.6401 38.222 33.644L38.0309 33.6575C37.9831 33.6988 37.9991 33.8093 38.0468 33.83C38.1528 33.8264 38.3412 33.819 38.3412 33.819C38.5655 33.8111 38.7913 33.7946 39.0079 33.7946C39.2841 33.7946 39.5604 33.8126 39.8366 33.82C39.9272 33.8226 39.8505 33.8256 39.9553 33.8292C40.0029 33.8086 40.019 33.6981 39.9713 33.6569Z" fill="white"/>
<path id="Fill-39" fill-rule="evenodd" clip-rule="evenodd" d="M34.5757 11.604L32.6242 10.2198C32.6242 10.2198 30.2867 11.9968 30.1511 12.0239C30.0153 12.0508 28.5207 11.5122 28.5207 11.5122C27.977 11.7814 24.5524 14.0164 24.5524 14.0164L23.1392 13.074L21.7533 12.8046L19.9055 11.4852L17.7852 12.9123C17.7852 12.9123 15.4208 14.2587 15.339 14.2587C15.2579 14.2587 12.4855 12.1046 12.4855 12.1046L11.2084 10.7851C10.991 10.9198 9.95807 11.3776 9.95807 11.3776L8.19185 10.166L5.01039 11.9431C4.7856 12.9618 4.66602 14.019 4.66602 15.1037C4.66602 16.0543 4.75789 16.9836 4.93185 17.8845C6.26455 17.6465 8.6949 17.3082 10.7055 17.5571C13.6406 17.9207 15.475 18.4052 18.5734 19.0919C21.6714 19.7786 23.9545 20.4248 27.2971 20.0613C30.4264 19.7211 32.6982 19.0973 34.7808 17.6275C34.924 16.8071 34.9993 15.9641 34.9993 15.1037C34.9993 13.8981 34.8521 12.7265 34.5757 11.604Z" fill="#25346D"/>
</g>
</g>
</g>
<defs>
<clipPath id="clip0_3500_6441">
<rect width="40" height="35.6667" fill="white" transform="translate(0 0.166016)"/>
</clipPath>
</defs>
</svg>
